<svg xmlns="http://www.w3.org/2000/svg" xmlns:xlink="http://www.w3.org/1999/xlink" width="500" zoomAndPan="magnify" viewBox="0 0 375 374.999991" height="500" preserveAspectRatio="xMidYMid meet" version="1.2"><defs><clipPath id="a89680c143"><path d="M 81.929688 133.421875 L 164 133.421875 L 164 199.421875 L 81.929688 199.421875 Z M 81.929688 133.421875 "/></clipPath><clipPath id="259bc6699b"><path d="M 94 136 L 231.929688 136 L 231.929688 191 L 94 191 Z M 94 136 "/></clipPath></defs><g id="d6de10d33e"><rect x="0" width="375" y="0" height="374.999991" style="fill:#ffffff;fill-opacity:1;stroke:none;"/><rect x="0" width="375" y="0" height="374.999991" style="fill:#ffffff;fill-opacity:1;stroke:none;"/><g clip-rule="nonzero" clip-path="url(#a89680c143)"><path style=" stroke:none;fill-rule:nonzero;fill:#007a3f;fill-opacity:1;" d="M 161.199219 175.363281 C 158.007812 172.96875 154.875 170.445312 151.816406 167.953125 C 149.53125 169.699219 147.238281 171.410156 144.925781 173.050781 C 141.789062 175.269531 138.621094 177.363281 135.417969 179.203125 C 133.820312 180.125 132.210938 180.980469 130.601562 181.753906 C 128.992188 182.535156 127.378906 183.230469 125.773438 183.816406 C 122.5625 184.988281 119.371094 185.746094 116.332031 185.90625 C 114.808594 185.984375 113.304688 185.925781 111.816406 185.730469 C 110.332031 185.535156 108.875 185.179688 107.464844 184.714844 C 104.648438 183.769531 102.023438 182.289062 99.773438 180.417969 C 97.515625 178.550781 95.625 176.296875 94.191406 173.839844 C 93.476562 172.609375 92.875 171.324219 92.390625 170.011719 C 92.144531 169.355469 91.941406 168.691406 91.738281 168.027344 C 91.648438 167.691406 91.5625 167.355469 91.476562 167.023438 C 91.390625 166.6875 91.335938 166.347656 91.261719 166.011719 C 91.183594 165.664062 91.140625 165.363281 91.089844 165.058594 L 91.011719 164.597656 L 90.992188 164.476562 L 90.980469 164.328125 L 90.953125 164.027344 L 90.898438 163.429688 L 90.875 163.132812 L 90.859375 162.984375 C 90.859375 163.183594 90.859375 163.003906 90.859375 163.03125 L 90.855469 162.96875 C 90.839844 162.628906 90.820312 162.292969 90.804688 161.957031 C 90.777344 160.613281 90.816406 159.285156 90.960938 157.984375 C 91.121094 156.6875 91.375 155.421875 91.699219 154.195312 C 92.050781 152.980469 92.453125 151.796875 92.925781 150.664062 C 93.90625 148.421875 95.136719 146.390625 96.515625 144.621094 C 97.890625 142.84375 99.421875 141.347656 100.960938 140.089844 C 102.503906 138.835938 104.070312 137.832031 105.554688 137.027344 C 108.539062 135.441406 111.183594 134.652344 113.003906 134.230469 C 113.460938 134.132812 113.867188 134.042969 114.21875 133.96875 C 114.570312 133.898438 114.875 133.855469 115.117188 133.8125 C 115.601562 133.734375 115.851562 133.691406 115.851562 133.691406 C 115.851562 133.691406 115.601562 133.664062 115.113281 133.609375 C 114.867188 133.582031 114.566406 133.539062 114.203125 133.511719 C 113.839844 133.484375 113.414062 133.460938 112.929688 133.441406 C 112.445312 133.425781 111.910156 133.4375 111.308594 133.433594 C 111.011719 133.449219 110.699219 133.46875 110.375 133.484375 C 110.050781 133.503906 109.710938 133.519531 109.359375 133.566406 C 107.945312 133.6875 106.328125 133.980469 104.542969 134.472656 C 102.753906 134.960938 100.808594 135.695312 98.792969 136.75 C 97.777344 137.265625 96.757812 137.878906 95.726562 138.574219 C 94.714844 139.289062 93.679688 140.0625 92.683594 140.960938 C 91.671875 141.839844 90.691406 142.832031 89.75 143.917969 C 88.808594 145.007812 87.925781 146.207031 87.078125 147.488281 C 86.261719 148.789062 85.484375 150.171875 84.820312 151.660156 C 84.167969 153.152344 83.597656 154.730469 83.136719 156.386719 C 82.699219 158.046875 82.355469 159.78125 82.171875 161.574219 C 82.136719 162.023438 82.097656 162.476562 82.0625 162.925781 C 82.042969 163.367188 82.027344 163.8125 82.011719 164.253906 L 82 164.554688 L 81.992188 164.707031 L 81.996094 164.886719 L 82.007812 165.628906 C 82.019531 166.128906 82.027344 166.636719 82.066406 167.09375 C 82.265625 170.863281 83.214844 174.75 84.851562 178.484375 C 85.671875 180.347656 86.667969 182.179688 87.851562 183.921875 C 89.046875 185.65625 90.414062 187.316406 91.945312 188.851562 C 95.011719 191.917969 98.753906 194.5 102.972656 196.28125 C 107.183594 198.066406 111.867188 199.035156 116.589844 199.042969 L 116.957031 199.046875 C 117.078125 199.050781 117.183594 199.050781 117.363281 199.042969 L 118.320312 199.011719 L 118.796875 198.992188 L 120.109375 198.898438 C 121.273438 198.789062 122.425781 198.636719 123.5625 198.433594 C 125.835938 198.03125 128.050781 197.472656 130.195312 196.78125 C 132.335938 196.085938 134.40625 195.273438 136.421875 194.386719 C 138.433594 193.492188 140.382812 192.511719 142.28125 191.480469 C 144.183594 190.453125 146.023438 189.347656 147.828125 188.214844 C 149.628906 187.082031 151.394531 185.914062 153.113281 184.707031 C 156.675781 182.226562 160.085938 179.628906 163.390625 177.003906 C 162.695312 176.488281 161.984375 175.953125 161.199219 175.363281 "/></g><path style=" stroke:none;fill-rule:nonzero;fill:#007a3f;fill-opacity:1;" d="M 228.664062 158.136719 C 228.515625 157.257812 228.316406 156.375 228.054688 155.496094 C 227.785156 154.621094 227.457031 153.753906 227.070312 152.894531 C 225.523438 149.476562 223.003906 146.230469 219.628906 143.832031 C 216.277344 141.417969 212.167969 139.828125 207.925781 139.292969 C 205.804688 139.003906 203.65625 138.964844 201.53125 139.113281 C 199.402344 139.253906 197.296875 139.605469 195.238281 140.101562 C 193.175781 140.59375 191.160156 141.246094 189.203125 142.019531 C 188.710938 142.207031 188.226562 142.410156 187.738281 142.613281 C 187.253906 142.828125 186.789062 143.019531 186.277344 143.261719 L 185.539062 143.609375 L 184.90625 143.917969 L 184.746094 143.996094 L 184.519531 144.109375 L 184.160156 144.296875 C 183.921875 144.425781 183.675781 144.546875 183.445312 144.675781 C 181.558594 145.699219 179.78125 146.785156 178.074219 147.921875 C 176.359375 149.054688 174.699219 150.214844 173.078125 151.40625 C 169.828125 153.789062 166.683594 156.242188 163.574219 158.710938 C 163.527344 158.746094 163.484375 158.78125 163.4375 158.816406 C 165.625 160.617188 167.769531 162.375 169.933594 164.105469 C 170.914062 164.882812 172.085938 165.808594 173.269531 166.707031 C 173.757812 167.085938 174.214844 167.433594 174.65625 167.773438 C 176.925781 165.890625 179.15625 164.046875 181.363281 162.296875 C 182.828125 161.136719 184.273438 160.011719 185.714844 158.964844 C 187.15625 157.917969 188.574219 156.933594 189.960938 156.078125 C 190.132812 155.96875 190.304688 155.871094 190.476562 155.769531 L 190.734375 155.613281 L 190.800781 155.574219 C 190.832031 155.558594 190.742188 155.601562 190.816406 155.5625 L 190.96875 155.476562 L 191.582031 155.128906 L 192.097656 154.847656 C 192.417969 154.660156 192.804688 154.464844 193.15625 154.277344 C 193.515625 154.09375 193.875 153.910156 194.238281 153.738281 C 194.960938 153.390625 195.679688 153.066406 196.402344 152.777344 C 197.125 152.480469 197.84375 152.203125 198.5625 151.964844 C 201.4375 151 204.269531 150.5 206.921875 150.550781 C 209.566406 150.605469 212.035156 151.1875 214.148438 152.316406 C 215.203125 152.878906 216.167969 153.570312 217.042969 154.34375 C 217.914062 155.125 218.664062 156.019531 219.292969 156.976562 C 219.917969 157.9375 220.425781 158.957031 220.804688 160.007812 C 221.183594 161.0625 221.417969 162.144531 221.523438 163.21875 C 221.730469 165.367188 221.425781 167.484375 220.675781 169.359375 C 219.945312 171.242188 218.8125 172.898438 217.496094 174.246094 C 216.195312 175.617188 214.714844 176.671875 213.289062 177.527344 C 210.410156 179.21875 207.757812 180.050781 205.960938 180.585938 C 205.054688 180.839844 204.347656 181.023438 203.871094 181.136719 C 203.390625 181.246094 203.140625 181.304688 203.140625 181.304688 C 203.140625 181.304688 203.394531 181.328125 203.886719 181.371094 C 204.382812 181.410156 205.113281 181.46875 206.078125 181.476562 C 207.042969 181.492188 208.238281 181.464844 209.652344 181.320312 C 211.070312 181.183594 212.695312 180.898438 214.507812 180.375 C 216.3125 179.839844 218.292969 179.019531 220.300781 177.726562 C 222.285156 176.421875 224.289062 174.597656 225.886719 172.15625 C 227.457031 169.71875 228.621094 166.671875 228.886719 163.3125 C 229.027344 161.636719 228.957031 159.894531 228.664062 158.136719 "/><g clip-rule="nonzero" clip-path="url(#259bc6699b)"><path style=" stroke:none;fill-rule:nonzero;fill:#242424;fill-opacity:1;" d="M 107.613281 179.679688 C 107.613281 179.679688 107.433594 179.636719 107.078125 179.550781 C 106.722656 179.472656 106.199219 179.328125 105.523438 179.09375 C 104.199219 178.601562 102.199219 177.753906 100.164062 175.863281 C 98.125 174.011719 96.15625 171.058594 95.160156 167.242188 C 94.160156 163.441406 94.101562 158.832031 95.519531 154.113281 C 96.226562 151.757812 97.308594 149.382812 98.828125 147.136719 C 100.34375 144.894531 102.335938 142.804688 104.753906 141.097656 C 107.167969 139.382812 110.035156 138.132812 113.078125 137.453125 C 116.125 136.753906 119.332031 136.703125 122.453125 137.101562 C 123.238281 137.191406 124.011719 137.335938 124.789062 137.476562 L 125.921875 137.726562 C 126.339844 137.839844 126.78125 137.957031 127.175781 138.078125 C 128.730469 138.550781 130.21875 139.136719 131.652344 139.792969 C 134.527344 141.101562 137.195312 142.675781 139.753906 144.367188 C 144.882812 147.738281 149.597656 151.558594 154.261719 155.335938 C 158.886719 159.15625 163.4375 162.964844 167.953125 166.582031 C 169.085938 167.480469 170.21875 168.367188 171.351562 169.230469 C 172.480469 170.105469 173.605469 170.960938 174.738281 171.789062 C 177 173.453125 179.277344 175.003906 181.542969 176.460938 C 186.085938 179.347656 190.671875 181.734375 195.210938 183.273438 C 196.34375 183.667969 197.472656 183.996094 198.597656 184.273438 L 199.015625 184.375 L 199.226562 184.421875 L 199.332031 184.449219 L 199.382812 184.460938 C 199.378906 184.460938 199.464844 184.476562 199.390625 184.464844 C 199.691406 184.527344 199.996094 184.585938 200.296875 184.648438 C 200.882812 184.75 201.347656 184.847656 201.921875 184.921875 C 204.125 185.253906 206.289062 185.316406 208.359375 185.183594 C 212.511719 184.9375 216.257812 183.816406 219.34375 182.28125 C 222.445312 180.757812 224.863281 178.816406 226.703125 177.050781 C 228.53125 175.265625 229.816406 173.664062 230.632812 172.53125 C 231.050781 171.96875 231.347656 171.523438 231.554688 171.226562 C 231.761719 170.925781 231.871094 170.769531 231.871094 170.769531 C 231.871094 170.769531 231.800781 170.945312 231.667969 171.28125 C 231.527344 171.617188 231.347656 172.132812 231.035156 172.769531 C 230.441406 174.050781 229.519531 175.9375 227.941406 178.121094 C 226.371094 180.296875 224.132812 182.796875 220.957031 184.988281 C 219.375 186.089844 217.5625 187.085938 215.554688 187.945312 C 213.539062 188.777344 211.320312 189.453125 208.945312 189.875 C 207.761719 190.101562 206.535156 190.234375 205.28125 190.320312 C 204.027344 190.40625 202.742188 190.421875 201.4375 190.367188 C 200.808594 190.351562 200.066406 190.285156 199.433594 190.222656 C 199.128906 190.1875 198.824219 190.15625 198.515625 190.121094 C 198.171875 190.070312 197.828125 190.019531 197.480469 189.96875 C 196.15625 189.765625 194.824219 189.503906 193.492188 189.167969 C 188.167969 187.832031 182.894531 185.527344 177.835938 182.671875 C 175.296875 181.253906 172.808594 179.683594 170.359375 178.027344 C 169.128906 177.207031 167.914062 176.355469 166.699219 175.492188 C 165.492188 174.625 164.300781 173.730469 163.105469 172.832031 C 158.328125 169.242188 153.707031 165.390625 149.09375 161.640625 C 146.804688 159.746094 144.515625 157.875 142.21875 156.074219 C 139.917969 154.28125 137.644531 152.507812 135.332031 150.910156 C 133.019531 149.316406 130.699219 147.835938 128.371094 146.65625 C 127.207031 146.066406 126.042969 145.554688 124.890625 145.152344 L 124.105469 144.890625 L 123.183594 144.625 C 122.578125 144.484375 121.976562 144.332031 121.371094 144.230469 C 116.554688 143.304688 111.851562 144 108.085938 146.222656 C 104.300781 148.414062 101.53125 151.980469 99.949219 155.699219 C 98.335938 159.429688 97.863281 163.3125 98.238281 166.648438 C 98.609375 170 99.859375 172.796875 101.367188 174.765625 C 102.117188 175.753906 102.917969 176.550781 103.664062 177.199219 C 104.417969 177.839844 105.132812 178.308594 105.722656 178.671875 C 106.316406 179.015625 106.785156 179.28125 107.121094 179.433594 C 107.445312 179.59375 107.613281 179.679688 107.613281 179.679688 "/></g><g style="fill:#242424;fill-opacity:1;"><g transform="translate(144.197888, 235.665277)"><path style="stroke:none" d="M 1.546875 -25.046875 C 1.546875 -25.640625 1.566406 -26.082031 1.609375 -26.375 C 1.648438 -26.675781 1.773438 -27.019531 1.984375 -27.40625 C 2.347656 -28.113281 3.359375 -28.46875 5.015625 -28.46875 C 6.828125 -28.46875 7.898438 -27.988281 8.234375 -27.03125 C 8.359375 -26.582031 8.421875 -25.90625 8.421875 -25 L 8.421875 -3.421875 C 8.421875 -2.796875 8.398438 -2.335938 8.359375 -2.046875 C 8.328125 -1.765625 8.207031 -1.429688 8 -1.046875 C 7.632812 -0.347656 6.625 0 4.96875 0 C 3.15625 0 2.09375 -0.488281 1.78125 -1.46875 C 1.625 -1.882812 1.546875 -2.546875 1.546875 -3.453125 Z M 1.546875 -25.046875 "/></g></g><g style="fill:#242424;fill-opacity:1;"><g transform="translate(154.175728, 235.665277)"><path style="stroke:none" d="M 31.796875 -27.375 C 32.003906 -26.988281 32.128906 -26.640625 32.171875 -26.328125 C 32.210938 -26.015625 32.234375 -25.5625 32.234375 -24.96875 L 32.234375 -3.421875 C 32.234375 -1.628906 31.738281 -0.578125 30.75 -0.265625 C 30.257812 -0.109375 29.640625 -0.03125 28.890625 -0.03125 C 28.140625 -0.03125 27.539062 -0.09375 27.09375 -0.21875 C 26.65625 -0.351562 26.320312 -0.507812 26.09375 -0.6875 C 25.863281 -0.875 25.679688 -1.132812 25.546875 -1.46875 C 25.421875 -1.914062 25.359375 -2.59375 25.359375 -3.5 L 25.359375 -16.5 C 24.710938 -15.695312 23.765625 -14.421875 22.515625 -12.671875 C 21.273438 -10.929688 20.484375 -9.835938 20.140625 -9.390625 C 19.804688 -8.953125 19.578125 -8.648438 19.453125 -8.484375 C 19.328125 -8.316406 19.007812 -8.082031 18.5 -7.78125 C 18 -7.488281 17.457031 -7.34375 16.875 -7.34375 C 16.289062 -7.34375 15.757812 -7.476562 15.28125 -7.75 C 14.800781 -8.019531 14.457031 -8.285156 14.25 -8.546875 L 13.9375 -8.96875 C 13.414062 -9.613281 12.390625 -10.988281 10.859375 -13.09375 C 9.335938 -15.207031 8.515625 -16.34375 8.390625 -16.5 L 8.390625 -3.421875 C 8.390625 -2.828125 8.367188 -2.378906 8.328125 -2.078125 C 8.285156 -1.773438 8.160156 -1.445312 7.953125 -1.09375 C 7.566406 -0.382812 6.5625 -0.03125 4.9375 -0.03125 C 3.351562 -0.03125 2.367188 -0.382812 1.984375 -1.09375 C 1.773438 -1.445312 1.648438 -1.78125 1.609375 -2.09375 C 1.566406 -2.40625 1.546875 -2.875 1.546875 -3.5 L 1.546875 -25.046875 C 1.546875 -25.640625 1.566406 -26.082031 1.609375 -26.375 C 1.648438 -26.675781 1.773438 -27.019531 1.984375 -27.40625 C 2.367188 -28.082031 3.378906 -28.421875 5.015625 -28.421875 C 5.710938 -28.421875 6.3125 -28.335938 6.8125 -28.171875 C 7.320312 -28.003906 7.648438 -27.828125 7.796875 -27.640625 L 8.03125 -27.40625 L 16.84375 -15.84375 C 21.25 -21.664062 24.191406 -25.507812 25.671875 -27.375 C 26.109375 -28.070312 27.144531 -28.421875 28.78125 -28.421875 C 30.425781 -28.421875 31.429688 -28.070312 31.796875 -27.375 Z M 31.796875 -27.375 "/></g></g><g style="fill:#242424;fill-opacity:1;"><g transform="translate(187.952836, 235.665277)"><path style="stroke:none" d="M 17.984375 -26.4375 L 28.46875 -4.78125 C 28.90625 -3.894531 29.125 -3.234375 29.125 -2.796875 C 29.125 -1.859375 28.375 -1.015625 26.875 -0.265625 C 25.988281 0.171875 25.289062 0.390625 24.78125 0.390625 C 24.28125 0.390625 23.867188 0.269531 23.546875 0.03125 C 23.222656 -0.195312 22.988281 -0.441406 22.84375 -0.703125 C 22.707031 -0.960938 22.507812 -1.347656 22.25 -1.859375 L 20.234375 -6.0625 L 9.46875 -6.0625 L 7.453125 -1.859375 C 7.191406 -1.347656 6.988281 -0.972656 6.84375 -0.734375 C 6.707031 -0.503906 6.476562 -0.265625 6.15625 -0.015625 C 5.832031 0.222656 5.414062 0.34375 4.90625 0.34375 C 4.40625 0.34375 3.710938 0.125 2.828125 -0.3125 C 1.328125 -1.03125 0.578125 -1.859375 0.578125 -2.796875 C 0.578125 -3.234375 0.800781 -3.894531 1.25 -4.78125 L 11.71875 -26.484375 C 12.007812 -27.078125 12.445312 -27.554688 13.03125 -27.921875 C 13.613281 -28.285156 14.226562 -28.46875 14.875 -28.46875 C 16.269531 -28.46875 17.304688 -27.789062 17.984375 -26.4375 Z M 14.828125 -17.125 L 12.265625 -11.796875 L 17.4375 -11.796875 Z M 14.828125 -17.125 "/></g></g><g style="fill:#242424;fill-opacity:1;"><g transform="translate(217.653389, 235.665277)"><path style="stroke:none" d="M 16.390625 -17.15625 L 23.21875 -17.15625 C 24.613281 -17.101562 25.46875 -16.742188 25.78125 -16.078125 C 26.039062 -15.585938 26.171875 -14.863281 26.171875 -13.90625 L 26.171875 -5.359375 C 26.171875 -4.523438 25.804688 -3.734375 25.078125 -2.984375 C 22.910156 -0.734375 19.648438 0.390625 15.296875 0.390625 C 11.441406 0.390625 8.085938 -1.0625 5.234375 -3.96875 C 2.390625 -6.882812 0.96875 -10.398438 0.96875 -14.515625 C 0.96875 -18.640625 2.414062 -22.078125 5.3125 -24.828125 C 8.21875 -27.585938 11.632812 -28.96875 15.5625 -28.96875 C 18.625 -28.96875 21.515625 -27.957031 24.234375 -25.9375 C 24.929688 -25.414062 25.28125 -24.835938 25.28125 -24.203125 C 25.28125 -23.578125 24.984375 -22.847656 24.390625 -22.015625 C 23.378906 -20.640625 22.457031 -19.953125 21.625 -19.953125 C 21.132812 -19.953125 20.34375 -20.304688 19.25 -21.015625 C 18.164062 -21.734375 16.875 -22.09375 15.375 -22.09375 C 13.40625 -22.09375 11.65625 -21.398438 10.125 -20.015625 C 8.601562 -18.628906 7.84375 -16.816406 7.84375 -14.578125 C 7.84375 -12.335938 8.617188 -10.429688 10.171875 -8.859375 C 11.722656 -7.296875 13.484375 -6.515625 15.453125 -6.515625 C 16.878906 -6.515625 18.160156 -6.75 19.296875 -7.21875 L 19.296875 -11.453125 L 16.234375 -11.453125 C 15.429688 -11.453125 14.859375 -11.554688 14.515625 -11.765625 C 14.179688 -11.972656 13.960938 -12.273438 13.859375 -12.671875 C 13.753906 -13.078125 13.703125 -13.625 13.703125 -14.3125 C 13.703125 -15 13.757812 -15.546875 13.875 -15.953125 C 14 -16.367188 14.210938 -16.65625 14.515625 -16.8125 C 14.984375 -17.039062 15.609375 -17.15625 16.390625 -17.15625 Z M 16.390625 -17.15625 "/></g></g><g style="fill:#242424;fill-opacity:1;"><g transform="translate(245.373907, 235.665277)"><path style="stroke:none" d="M 1.546875 -25.046875 C 1.546875 -25.640625 1.566406 -26.082031 1.609375 -26.375 C 1.648438 -26.675781 1.773438 -27.019531 1.984375 -27.40625 C 2.347656 -28.113281 3.359375 -28.46875 5.015625 -28.46875 C 6.828125 -28.46875 7.898438 -27.988281 8.234375 -27.03125 C 8.359375 -26.582031 8.421875 -25.90625 8.421875 -25 L 8.421875 -3.421875 C 8.421875 -2.796875 8.398438 -2.335938 8.359375 -2.046875 C 8.328125 -1.765625 8.207031 -1.429688 8 -1.046875 C 7.632812 -0.347656 6.625 0 4.96875 0 C 3.15625 0 2.09375 -0.488281 1.78125 -1.46875 C 1.625 -1.882812 1.546875 -2.546875 1.546875 -3.453125 Z M 1.546875 -25.046875 "/></g></g><g style="fill:#242424;fill-opacity:1;"><g transform="translate(255.351746, 235.665277)"><path style="stroke:none" d="M 19.9375 -27.265625 C 20.1875 -27.722656 20.554688 -28.03125 21.046875 -28.1875 C 21.535156 -28.34375 22.148438 -28.421875 22.890625 -28.421875 C 23.628906 -28.421875 24.222656 -28.351562 24.671875 -28.21875 C 25.128906 -28.09375 25.46875 -27.9375 25.6875 -27.75 C 25.90625 -27.570312 26.066406 -27.304688 26.171875 -26.953125 C 26.328125 -26.535156 26.40625 -25.875 26.40625 -24.96875 L 26.40625 -3.421875 C 26.40625 -2.796875 26.382812 -2.335938 26.34375 -2.046875 C 26.300781 -1.765625 26.175781 -1.429688 25.96875 -1.046875 C 25.613281 -0.347656 24.609375 0 22.953125 0 C 21.941406 0 21.238281 -0.078125 20.84375 -0.234375 C 20.457031 -0.390625 20.132812 -0.632812 19.875 -0.96875 C 14.050781 -8.738281 10.222656 -13.8125 8.390625 -16.1875 L 8.390625 -3.421875 C 8.390625 -2.796875 8.367188 -2.335938 8.328125 -2.046875 C 8.285156 -1.765625 8.160156 -1.429688 7.953125 -1.046875 C 7.597656 -0.347656 6.59375 0 4.9375 0 C 3.332031 0 2.347656 -0.347656 1.984375 -1.046875 C 1.773438 -1.429688 1.648438 -1.78125 1.609375 -2.09375 C 1.566406 -2.40625 1.546875 -2.859375 1.546875 -3.453125 L 1.546875 -25.125 C 1.546875 -26.101562 1.671875 -26.816406 1.921875 -27.265625 C 2.171875 -27.722656 2.539062 -28.03125 3.03125 -28.1875 C 3.519531 -28.34375 4.148438 -28.421875 4.921875 -28.421875 C 5.703125 -28.421875 6.316406 -28.347656 6.765625 -28.203125 C 7.222656 -28.066406 7.546875 -27.90625 7.734375 -27.71875 C 7.828125 -27.644531 8.125 -27.3125 8.625 -26.71875 C 14.082031 -19.28125 17.726562 -14.375 19.5625 -12 L 19.5625 -25.125 C 19.5625 -26.101562 19.6875 -26.816406 19.9375 -27.265625 Z M 19.9375 -27.265625 "/></g></g><g style="fill:#242424;fill-opacity:1;"><g transform="translate(283.305209, 235.665277)"><path style="stroke:none" d="M 1.546875 -25.046875 C 1.546875 -25.640625 1.566406 -26.082031 1.609375 -26.375 C 1.648438 -26.675781 1.773438 -27.019531 1.984375 -27.40625 C 2.347656 -28.113281 3.359375 -28.46875 5.015625 -28.46875 C 6.828125 -28.46875 7.898438 -27.988281 8.234375 -27.03125 C 8.359375 -26.582031 8.421875 -25.90625 8.421875 -25 L 8.421875 -3.421875 C 8.421875 -2.796875 8.398438 -2.335938 8.359375 -2.046875 C 8.328125 -1.765625 8.207031 -1.429688 8 -1.046875 C 7.632812 -0.347656 6.625 0 4.96875 0 C 3.15625 0 2.09375 -0.488281 1.78125 -1.46875 C 1.625 -1.882812 1.546875 -2.546875 1.546875 -3.453125 Z M 1.546875 -25.046875 "/></g></g><g style="fill:#242424;fill-opacity:1;"><g transform="translate(293.283049, 235.665277)"><path style="stroke:none" d="M 19.34375 -7.453125 L 20.03125 -7.953125 C 20.914062 -8.472656 21.539062 -8.734375 21.90625 -8.734375 C 22.707031 -8.734375 23.570312 -8.007812 24.5 -6.5625 C 25.070312 -5.65625 25.359375 -4.929688 25.359375 -4.390625 C 25.359375 -3.847656 25.179688 -3.394531 24.828125 -3.03125 C 24.484375 -2.664062 24.078125 -2.335938 23.609375 -2.046875 C 23.140625 -1.765625 22.691406 -1.492188 22.265625 -1.234375 C 21.835938 -0.984375 20.960938 -0.648438 19.640625 -0.234375 C 18.328125 0.179688 17.054688 0.390625 15.828125 0.390625 C 14.597656 0.390625 13.351562 0.226562 12.09375 -0.09375 C 10.84375 -0.414062 9.550781 -0.957031 8.21875 -1.71875 C 6.882812 -2.488281 5.6875 -3.421875 4.625 -4.515625 C 3.5625 -5.617188 2.6875 -7.03125 2 -8.75 C 1.3125 -10.476562 0.96875 -12.347656 0.96875 -14.359375 C 0.96875 -16.378906 1.300781 -18.210938 1.96875 -19.859375 C 2.644531 -21.503906 3.507812 -22.863281 4.5625 -23.9375 C 5.613281 -25.007812 6.8125 -25.910156 8.15625 -26.640625 C 10.6875 -28.035156 13.234375 -28.734375 15.796875 -28.734375 C 17.015625 -28.734375 18.25 -28.546875 19.5 -28.171875 C 20.757812 -27.796875 21.710938 -27.414062 22.359375 -27.03125 L 23.296875 -26.484375 C 23.765625 -26.191406 24.128906 -25.957031 24.390625 -25.78125 C 25.054688 -25.238281 25.390625 -24.625 25.390625 -23.9375 C 25.390625 -23.25 25.117188 -22.53125 24.578125 -21.78125 C 23.566406 -20.382812 22.660156 -19.6875 21.859375 -19.6875 C 21.390625 -19.6875 20.726562 -19.972656 19.875 -20.546875 C 18.789062 -21.421875 17.34375 -21.859375 15.53125 -21.859375 C 13.84375 -21.859375 12.1875 -21.273438 10.5625 -20.109375 C 9.78125 -19.546875 9.128906 -18.742188 8.609375 -17.703125 C 8.097656 -16.671875 7.84375 -15.5 7.84375 -14.1875 C 7.84375 -12.882812 8.097656 -11.710938 8.609375 -10.671875 C 9.128906 -9.640625 9.789062 -8.828125 10.59375 -8.234375 C 12.175781 -7.085938 13.820312 -6.515625 15.53125 -6.515625 C 16.332031 -6.515625 17.085938 -6.617188 17.796875 -6.828125 C 18.515625 -7.035156 19.03125 -7.242188 19.34375 -7.453125 Z M 19.34375 -7.453125 "/></g></g></g></svg>