<svg xmlns="http://www.w3.org/2000/svg" xmlns:xlink="http://www.w3.org/1999/xlink" width="500" zoomAndPan="magnify" viewBox="0 0 375 374.999991" height="500" preserveAspectRatio="xMidYMid meet" version="1.2"><defs><clipPath id="fe63ce7e34"><path d="M 14.046875 111.613281 L 203 111.613281 L 203 263.113281 L 14.046875 263.113281 Z M 14.046875 111.613281 "/></clipPath><clipPath id="34e8d288f6"><path d="M 42 119 L 361.296875 119 L 361.296875 244 L 42 244 Z M 42 119 "/></clipPath></defs><g id="4967d7dd04"><g clip-rule="nonzero" clip-path="url(#fe63ce7e34)"><path style=" stroke:none;fill-rule:nonzero;fill:#007a3f;fill-opacity:1;" d="M 197.546875 208.433594 C 190.167969 202.910156 182.914062 197.085938 175.828125 191.328125 C 170.535156 195.363281 165.230469 199.308594 159.882812 203.09375 C 152.613281 208.214844 145.28125 213.054688 137.867188 217.300781 C 134.167969 219.429688 130.441406 221.402344 126.710938 223.1875 C 122.988281 224.988281 119.257812 226.59375 115.535156 227.953125 C 108.105469 230.65625 100.71875 232.402344 93.683594 232.777344 C 90.15625 232.953125 86.671875 232.820312 83.230469 232.367188 C 79.789062 231.914062 76.421875 231.097656 73.15625 230.023438 C 66.632812 227.835938 60.5625 224.425781 55.355469 220.101562 C 50.125 215.796875 45.742188 210.59375 42.425781 204.914062 C 40.769531 202.074219 39.382812 199.109375 38.261719 196.082031 C 37.691406 194.570312 37.222656 193.035156 36.746094 191.503906 C 36.542969 190.726562 36.34375 189.953125 36.144531 189.179688 C 35.941406 188.410156 35.816406 187.625 35.644531 186.847656 C 35.460938 186.042969 35.367188 185.351562 35.25 184.644531 L 35.070312 183.578125 L 35.023438 183.304688 L 34.992188 182.957031 L 34.929688 182.269531 L 34.808594 180.886719 L 34.746094 180.203125 L 34.714844 179.859375 C 34.71875 180.320312 34.710938 179.902344 34.710938 179.96875 L 34.703125 179.820312 C 34.664062 179.039062 34.625 178.261719 34.585938 177.488281 C 34.527344 174.382812 34.609375 171.316406 34.949219 168.3125 C 35.324219 165.316406 35.902344 162.394531 36.660156 159.566406 C 37.46875 156.757812 38.40625 154.03125 39.496094 151.417969 C 41.761719 146.238281 44.617188 141.546875 47.808594 137.46875 C 50.988281 133.363281 54.535156 129.910156 58.097656 127 C 61.671875 124.105469 65.296875 121.792969 68.730469 119.9375 C 75.640625 116.269531 81.761719 114.445312 85.976562 113.472656 C 87.039062 113.246094 87.976562 113.046875 88.789062 112.875 C 89.609375 112.707031 90.3125 112.613281 90.871094 112.515625 C 91.996094 112.328125 92.574219 112.234375 92.574219 112.234375 C 92.574219 112.234375 91.992188 112.167969 90.859375 112.039062 C 90.292969 111.980469 89.59375 111.878906 88.753906 111.8125 C 87.910156 111.757812 86.925781 111.703125 85.804688 111.652344 C 84.683594 111.621094 83.441406 111.644531 82.054688 111.636719 C 81.367188 111.675781 80.648438 111.714844 79.894531 111.753906 C 79.140625 111.796875 78.351562 111.839844 77.542969 111.945312 C 74.269531 112.222656 70.527344 112.898438 66.390625 114.035156 C 62.253906 115.164062 57.746094 116.855469 53.074219 119.289062 C 50.730469 120.484375 48.367188 121.902344 45.984375 123.5 C 43.644531 125.152344 41.238281 126.941406 38.933594 129.011719 C 36.589844 131.042969 34.324219 133.332031 32.144531 135.839844 C 29.964844 138.355469 27.921875 141.128906 25.964844 144.085938 C 24.070312 147.085938 22.265625 150.277344 20.730469 153.714844 C 19.222656 157.160156 17.90625 160.804688 16.835938 164.628906 C 15.820312 168.460938 15.023438 172.464844 14.601562 176.601562 C 14.519531 177.636719 14.433594 178.679688 14.347656 179.726562 C 14.308594 180.742188 14.269531 181.765625 14.226562 182.789062 L 14.199219 183.484375 L 14.1875 183.832031 L 14.191406 184.253906 L 14.222656 185.964844 C 14.246094 187.113281 14.269531 188.285156 14.359375 189.339844 C 14.820312 198.042969 17.015625 207.019531 20.800781 215.636719 C 22.707031 219.945312 25.007812 224.171875 27.753906 228.191406 C 30.515625 232.199219 33.679688 236.023438 37.222656 239.574219 C 44.328125 246.652344 52.992188 252.613281 62.757812 256.722656 C 72.503906 260.847656 83.34375 263.085938 94.28125 263.105469 L 95.125 263.113281 C 95.410156 263.113281 95.660156 263.121094 96.066406 263.105469 L 98.285156 263.027344 L 99.394531 262.984375 L 100.402344 262.910156 L 102.433594 262.761719 C 105.121094 262.515625 107.792969 262.160156 110.421875 261.695312 C 115.683594 260.765625 120.8125 259.480469 125.773438 257.878906 C 130.730469 256.277344 135.527344 254.402344 140.191406 252.351562 C 144.847656 250.28125 149.359375 248.023438 153.757812 245.640625 C 158.164062 243.265625 162.421875 240.722656 166.597656 238.109375 C 170.769531 235.488281 174.851562 232.792969 178.832031 230.007812 C 187.082031 224.28125 194.972656 218.28125 202.625 212.21875 C 201.015625 211.03125 199.371094 209.800781 197.546875 208.433594 "/></g><path style=" stroke:none;fill-rule:nonzero;fill:#007a3f;fill-opacity:1;" d="M 353.738281 168.664062 C 353.394531 166.636719 352.925781 164.597656 352.320312 162.570312 C 351.703125 160.550781 350.9375 158.542969 350.039062 156.566406 C 346.46875 148.671875 340.628906 141.175781 332.816406 135.640625 C 325.054688 130.070312 315.546875 126.402344 305.726562 125.160156 C 300.816406 124.496094 295.84375 124.40625 290.921875 124.746094 C 285.988281 125.070312 281.121094 125.886719 276.351562 127.03125 C 271.582031 128.167969 266.914062 129.671875 262.378906 131.453125 C 261.238281 131.890625 260.121094 132.363281 258.992188 132.828125 C 257.863281 133.324219 256.792969 133.769531 255.609375 134.328125 L 253.898438 135.128906 L 252.433594 135.839844 L 252.0625 136.019531 L 251.539062 136.285156 L 250.707031 136.71875 C 250.152344 137.007812 249.582031 137.292969 249.050781 137.59375 C 244.683594 139.949219 240.566406 142.457031 236.617188 145.082031 C 232.652344 147.695312 228.804688 150.378906 225.046875 153.125 C 217.53125 158.625 210.25 164.292969 203.046875 169.988281 C 202.945312 170.070312 202.839844 170.152344 202.738281 170.230469 C 207.796875 174.390625 212.765625 178.453125 217.773438 182.449219 C 220.039062 184.242188 222.75 186.375 225.492188 188.449219 C 226.625 189.324219 227.683594 190.128906 228.707031 190.910156 C 233.957031 186.566406 239.117188 182.3125 244.230469 178.273438 C 247.621094 175.589844 250.972656 172.992188 254.304688 170.574219 C 257.640625 168.15625 260.921875 165.890625 264.132812 163.914062 C 264.539062 163.65625 264.933594 163.4375 265.332031 163.195312 L 265.929688 162.839844 L 266.078125 162.753906 C 266.148438 162.710938 265.945312 162.816406 266.117188 162.722656 L 266.472656 162.523438 L 267.890625 161.722656 L 269.085938 161.070312 C 269.828125 160.644531 270.71875 160.191406 271.53125 159.753906 C 272.367188 159.335938 273.199219 158.90625 274.035156 158.511719 C 275.707031 157.707031 277.375 156.964844 279.050781 156.289062 C 280.722656 155.609375 282.382812 154.964844 284.050781 154.417969 C 290.699219 152.1875 297.261719 151.039062 303.398438 151.148438 C 309.527344 151.28125 315.234375 152.621094 320.132812 155.226562 C 322.574219 156.527344 324.804688 158.121094 326.828125 159.910156 C 328.84375 161.714844 330.585938 163.773438 332.042969 165.984375 C 333.488281 168.203125 334.664062 170.5625 335.539062 172.988281 C 336.414062 175.417969 336.960938 177.914062 337.199219 180.394531 C 337.679688 185.359375 336.980469 190.25 335.246094 194.578125 C 333.550781 198.925781 330.929688 202.746094 327.878906 205.851562 C 324.867188 209.019531 321.4375 211.457031 318.136719 213.425781 C 311.476562 217.339844 305.335938 219.261719 301.175781 220.488281 C 299.078125 221.078125 297.441406 221.496094 296.335938 221.761719 C 295.222656 222.019531 294.652344 222.152344 294.652344 222.152344 C 294.652344 222.152344 295.238281 222.207031 296.375 222.304688 C 297.519531 222.394531 299.21875 222.527344 301.449219 222.546875 C 303.683594 222.585938 306.449219 222.519531 309.726562 222.1875 C 313 221.871094 316.769531 221.210938 320.960938 220 C 325.136719 218.765625 329.722656 216.875 334.371094 213.886719 C 338.96875 210.875 343.609375 206.671875 347.308594 201.035156 C 350.945312 195.402344 353.628906 188.371094 354.25 180.613281 C 354.570312 176.746094 354.414062 172.71875 353.738281 168.664062 "/><g clip-rule="nonzero" clip-path="url(#34e8d288f6)"><path style=" stroke:none;fill-rule:nonzero;fill:#242424;fill-opacity:1;" d="M 73.5 218.394531 C 73.5 218.394531 73.078125 218.296875 72.257812 218.101562 C 71.441406 217.917969 70.226562 217.589844 68.660156 217.046875 C 65.597656 215.914062 60.960938 213.953125 56.253906 209.589844 C 51.53125 205.316406 46.976562 198.492188 44.671875 189.683594 C 42.359375 180.910156 42.21875 170.269531 45.5 159.378906 C 47.136719 153.941406 49.648438 148.460938 53.160156 143.269531 C 56.671875 138.089844 61.285156 133.265625 66.882812 129.328125 C 72.464844 125.367188 79.109375 122.480469 86.152344 120.914062 C 93.207031 119.300781 100.632812 119.183594 107.855469 120.101562 C 109.671875 120.3125 111.460938 120.640625 113.261719 120.964844 L 115.886719 121.550781 C 116.847656 121.804688 117.875 122.078125 118.785156 122.355469 C 122.386719 123.449219 125.828125 124.804688 129.152344 126.3125 C 135.804688 129.335938 141.984375 132.96875 147.902344 136.878906 C 159.777344 144.660156 170.695312 153.476562 181.488281 162.203125 C 192.195312 171.023438 202.730469 179.8125 213.183594 188.160156 C 215.808594 190.234375 218.429688 192.285156 221.054688 194.277344 C 223.664062 196.292969 226.273438 198.273438 228.894531 200.183594 C 234.128906 204.023438 239.402344 207.601562 244.648438 210.96875 C 255.164062 217.636719 265.777344 223.140625 276.289062 226.695312 C 278.910156 227.605469 281.527344 228.363281 284.125 229 L 285.101562 229.234375 L 285.585938 229.347656 L 285.828125 229.40625 L 285.949219 229.4375 C 285.941406 229.4375 286.136719 229.476562 285.964844 229.449219 C 286.664062 229.589844 287.363281 229.730469 288.066406 229.867188 C 289.414062 230.101562 290.5 230.328125 291.828125 230.5 C 296.921875 231.261719 301.941406 231.410156 306.734375 231.109375 C 316.34375 230.539062 325.015625 227.945312 332.15625 224.410156 C 339.335938 220.886719 344.9375 216.40625 349.191406 212.332031 C 353.421875 208.207031 356.40625 204.511719 358.289062 201.894531 C 359.261719 200.601562 359.949219 199.566406 360.429688 198.882812 C 360.910156 198.1875 361.15625 197.832031 361.15625 197.832031 C 361.15625 197.832031 360.996094 198.234375 360.683594 199.011719 C 360.359375 199.789062 359.941406 200.976562 359.226562 202.445312 C 357.847656 205.402344 355.71875 209.757812 352.066406 214.800781 C 348.425781 219.820312 343.246094 225.597656 335.890625 230.660156 C 332.230469 233.199219 328.03125 235.5 323.382812 237.480469 C 318.714844 239.402344 313.582031 240.964844 308.085938 241.9375 C 305.339844 242.457031 302.503906 242.769531 299.601562 242.960938 C 296.699219 243.164062 293.722656 243.199219 290.703125 243.066406 C 289.246094 243.035156 287.535156 242.878906 286.070312 242.738281 C 285.363281 242.660156 284.65625 242.585938 283.941406 242.507812 C 283.144531 242.390625 282.34375 242.273438 281.542969 242.152344 C 278.476562 241.683594 275.390625 241.074219 272.3125 240.300781 C 259.988281 237.21875 247.78125 231.898438 236.070312 225.300781 C 230.191406 222.035156 224.433594 218.40625 218.753906 214.589844 C 215.90625 212.6875 213.09375 210.726562 210.285156 208.734375 C 207.492188 206.726562 204.730469 204.664062 201.964844 202.589844 C 190.90625 194.308594 180.207031 185.417969 169.527344 176.753906 C 164.222656 172.382812 158.929688 168.066406 153.617188 163.902344 C 148.289062 159.769531 143.023438 155.671875 137.664062 151.984375 C 132.3125 148.300781 126.9375 144.886719 121.550781 142.15625 C 118.859375 140.800781 116.164062 139.621094 113.5 138.691406 L 111.679688 138.082031 L 109.542969 137.472656 C 108.140625 137.148438 106.746094 136.796875 105.351562 136.5625 C 94.199219 134.425781 83.308594 136.035156 74.597656 141.164062 C 65.832031 146.21875 59.417969 154.453125 55.753906 163.039062 C 52.019531 171.648438 50.925781 180.613281 51.800781 188.3125 C 52.652344 196.050781 55.546875 202.507812 59.039062 207.054688 C 60.777344 209.335938 62.628906 211.179688 64.359375 212.671875 C 66.101562 214.152344 67.753906 215.234375 69.121094 216.070312 C 70.5 216.867188 71.585938 217.480469 72.355469 217.832031 C 73.109375 218.207031 73.5 218.394531 73.5 218.394531 "/></g></g></svg>